<svg width="44" height="40" viewBox="0 0 44 40" fill="none" xmlns="http://www.w3.org/2000/svg">
<path d="M13.3566 35C13.3566 35 14.2444 27.5 20.4595 20.8333M34.8962 7.07L35.951 17.3617C36.6152 23.8383 31.4407 29.605 24.5419 30.2283C17.7711 30.84 11.6377 26.195 10.986 19.84C10.6728 16.7882 11.6641 13.7447 13.7418 11.379C15.8194 9.01318 18.8133 7.51896 22.0648 7.225L33.7331 6.17166C33.8725 6.15902 34.0131 6.17227 34.147 6.21067C34.2809 6.24907 34.4054 6.31185 34.5134 6.39543C34.6214 6.47902 34.7108 6.58176 34.7765 6.69779C34.8422 6.81382 34.8829 6.9392 34.8962 7.07Z" stroke="white" stroke-width="1.5" stroke-linecap="round" stroke-linejoin="round"/>
</svg>
